<svg id="Icon_material-forward-5" data-name="Icon material-forward-5" xmlns="http://www.w3.org/2000/svg" width="60.587" height="75.734" viewBox="0 0 60.587 75.734">
  <path id="Icon_material-forward-5-2" data-name="Icon material-forward-5" d="M6,46.94a30.293,30.293,0,0,0,60.587,0H59.014a22.72,22.72,0,1,1-22.72-22.72V39.367L55.227,20.433,36.293,1.5V16.647A30.383,30.383,0,0,0,6,46.94Zm25.371,3.408.757-8.331h9.088v2.651H34.779L34.4,48.076a.371.371,0,0,0,.379-.379c0-.379.379,0,.379-.379s.379,0,.757,0h.757a2.838,2.838,0,0,1,1.893.379c.379.379,1.136.757,1.515,1.136a8.277,8.277,0,0,1,1.136,1.893A4.8,4.8,0,0,1,41.595,53a2.838,2.838,0,0,1-.379,1.893c-.379.379-.379,1.136-1.136,1.893a5.044,5.044,0,0,1-1.893,1.136,4.8,4.8,0,0,1-2.272.379,2.838,2.838,0,0,1-1.893-.379c-.379-.379-1.136-.379-1.893-.757s-.757-.757-1.136-1.515a3.414,3.414,0,0,1-.379-1.893h3.029a1.967,1.967,0,0,0,.757,1.515c.379.379.757.379,1.515.379a1.391,1.391,0,0,0,1.136-.379l.757-.757a3.814,3.814,0,0,0,.379-1.136V51.106l-.379-.757-.757-.757a3.814,3.814,0,0,0-1.136-.379h-.757a1.173,1.173,0,0,0-.757.379c-.379.379-.379,0-.379.379a.371.371,0,0,1-.379.379H31.371Z" transform="translate(-6 -1.5)" fill="#fff" opacity="0.6"/>
</svg>
